<svg xmlns="http://www.w3.org/2000/svg" viewBox="0 0 720 480" role="img" aria-label="Cloud infrastructure illustration">
  <defs>
    <linearGradient id="sky" x1="0" y1="0" x2="720" y2="480" gradientUnits="userSpaceOnUse">
      <stop stop-color="#E8F3FF"/>
      <stop offset="1" stop-color="#B7D8F5"/>
    </linearGradient>
    <linearGradient id="cloud" x1="120" y1="120" x2="560" y2="340" gradientUnits="userSpaceOnUse">
      <stop stop-color="#FFFFFF"/>
      <stop offset="1" stop-color="#DCECFB"/>
    </linearGradient>
    <linearGradient id="accent" x1="250" y1="280" x2="470" y2="380" gradientUnits="userSpaceOnUse">
      <stop stop-color="#0B6BCB"/>
      <stop offset="1" stop-color="#084A8F"/>
    </linearGradient>
  </defs>
  <rect width="720" height="480" rx="32" fill="url(#sky)"/>
  <circle cx="560" cy="110" r="42" fill="#F4FBFF" opacity=".9"/>
  <path fill="url(#cloud)" d="M190 250c0-48 39-87 87-87 22 0 42 8 57 22 14-36 49-62 90-62 53 0 96 43 96 96 0 4 0 8-1 12 36 7 63 39 63 77 0 44-36 80-80 80H198c-40 0-72-32-72-72 0-35 25-64 58-71 3-7 6-14 6-35z"/>
  <rect x="250" y="300" width="220" height="64" rx="14" fill="url(#accent)"/>
  <text x="360" y="340" text-anchor="middle" fill="#fff" font-family="Segoe UI, Arial, sans-serif" font-size="22" font-weight="700">Amazon S3</text>
  <rect x="170" y="390" width="90" height="18" rx="9" fill="#0B6BCB" opacity=".35"/>
  <rect x="280" y="390" width="160" height="18" rx="9" fill="#0B6BCB" opacity=".22"/>
  <rect x="460" y="390" width="110" height="18" rx="9" fill="#0B6BCB" opacity=".3"/>
  <path stroke="#084A8F" stroke-width="3" stroke-linecap="round" fill="none" opacity=".35" d="M360 300V250M300 300V270M420 300V265"/>
  <circle cx="360" cy="240" r="8" fill="#084A8F"/>
  <circle cx="300" cy="260" r="6" fill="#1A8FD6"/>
  <circle cx="420" cy="255" r="6" fill="#1A8FD6"/>
</svg>
